<?xml version="1.0" encoding="UTF-8" standalone="no"?>
<!-- Created with Inkscape (http://www.inkscape.org/) -->

<svg
   xmlns:dc="http://purl.org/dc/elements/1.1/"
   xmlns:cc="http://creativecommons.org/ns#"
   xmlns:rdf="http://www.w3.org/1999/02/22-rdf-syntax-ns#"
   xmlns:svg="http://www.w3.org/2000/svg"
   xmlns="http://www.w3.org/2000/svg"
   xmlns:sodipodi="http://sodipodi.sourceforge.net/DTD/sodipodi-0.dtd"
   xmlns:inkscape="http://www.inkscape.org/namespaces/inkscape"
   width="100"
   height="50"
   viewBox="0 0 26.458332 13.229167"
   version="1.1"
   id="svg12460"
   inkscape:version="0.92.4 (5da689c313, 2019-01-14)"
   sodipodi:docname="stick.svg">
  <defs
     id="defs12454" />
  <sodipodi:namedview
     id="base"
     pagecolor="#ffffff"
     bordercolor="#666666"
     borderopacity="1.0"
     inkscape:pageopacity="0.0"
     inkscape:pageshadow="2"
     inkscape:zoom="24.289157"
     inkscape:cx="71.871204"
     inkscape:cy="27.613034"
     inkscape:document-units="px"
     inkscape:current-layer="layer1"
     showgrid="true"
     units="px"
     inkscape:snap-nodes="true"
     inkscape:object-paths="true"
     inkscape:snap-intersection-paths="true"
     inkscape:snap-smooth-nodes="true"
     inkscape:snap-midpoints="true"
     inkscape:pagecheckerboard="true"
     inkscape:window-width="1920"
     inkscape:window-height="1028"
     inkscape:window-x="1912"
     inkscape:window-y="-8"
     inkscape:window-maximized="1"
     fit-margin-top="0"
     fit-margin-left="0"
     fit-margin-right="0"
     fit-margin-bottom="0">
    <inkscape:grid
       type="xygrid"
       id="grid12462"
       originx="3.5973371e-12"
       originy="1.5000003e-06" />
  </sodipodi:namedview>
  <metadata
     id="metadata12457">
    <rdf:RDF>
      <cc:Work
         rdf:about="">
        <dc:format>image/svg+xml</dc:format>
        <dc:type
           rdf:resource="http://purl.org/dc/dcmitype/StillImage" />
        <dc:title></dc:title>
      </cc:Work>
    </rdf:RDF>
  </metadata>
  <g
     inkscape:label="Layer 1"
     inkscape:groupmode="layer"
     id="layer1"
     transform="translate(0,-283.77082)">
    <path
       style="fill:#000000;fill-opacity:1;stroke:none;stroke-width:11.11250019;stroke-linejoin:round;stroke-miterlimit:4;stroke-dasharray:none;stroke-dashoffset:0;stroke-opacity:1;paint-order:markers fill stroke"
       d="M 6.6145835,283.77082 A 6.6145835,6.6145831 0 0 0 0,290.3854 a 6.6145835,6.6145831 0 0 0 6.6145835,6.61459 6.6145835,6.6145831 0 0 0 6.6145835,-6.61459 6.6145835,6.6145831 0 0 0 -6.6145835,-6.61458 z m 0.110243,2.09462 a 4.5199653,4.519965 0 0 1 4.5199655,4.51996 4.5199653,4.519965 0 0 1 -4.5199655,4.51997 4.5199653,4.519965 0 0 1 -4.5199653,-4.51997 4.5199653,4.519965 0 0 1 4.5199653,-4.51996 z"
       id="path12472"
       inkscape:connector-curvature="0" />
    <path
       style="fill:#eeff01;fill-opacity:1;stroke:none;stroke-width:11.11250019;stroke-linejoin:round;stroke-miterlimit:4;stroke-dasharray:none;stroke-dashoffset:0;stroke-opacity:1;paint-order:markers fill stroke"
       d="m 19.843749,283.77082 a 6.6145827,6.6145831 0 0 0 -6.614583,6.61458 6.6145827,6.6145831 0 0 0 6.614583,6.61459 6.6145827,6.6145831 0 0 0 6.614583,-6.61459 6.6145827,6.6145831 0 0 0 -6.614583,-6.61458 z m 0.110243,2.09462 a 4.5199649,4.5199652 0 0 1 4.519965,4.51996 4.5199649,4.5199652 0 0 1 -4.519965,4.51997 4.5199649,4.5199652 0 0 1 -4.519965,-4.51997 4.5199649,4.5199652 0 0 1 4.519965,-4.51996 z"
       id="path12472-5"
       inkscape:connector-curvature="0" />
  </g>
</svg>
