<?xml version="1.0" encoding="UTF-8" standalone="no"?>
<!-- Created with Inkscape (http://www.inkscape.org/) -->

<svg
   xmlns:dc="http://purl.org/dc/elements/1.1/"
   xmlns:cc="http://creativecommons.org/ns#"
   xmlns:rdf="http://www.w3.org/1999/02/22-rdf-syntax-ns#"
   xmlns:svg="http://www.w3.org/2000/svg"
   xmlns="http://www.w3.org/2000/svg"
   xmlns:sodipodi="http://sodipodi.sourceforge.net/DTD/sodipodi-0.dtd"
   xmlns:inkscape="http://www.inkscape.org/namespaces/inkscape"
   width="600"
   height="300"
   viewBox="0 0 158.74999 79.375002"
   version="1.1"
   id="svg12460"
   inkscape:version="0.92.4 (5da689c313, 2019-01-14)"
   sodipodi:docname="stick.svg">
  <defs
     id="defs12454" />
  <sodipodi:namedview
     id="base"
     pagecolor="#ffffff"
     bordercolor="#666666"
     borderopacity="1.0"
     inkscape:pageopacity="0.0"
     inkscape:pageshadow="2"
     inkscape:zoom="2.1468784"
     inkscape:cx="338.00846"
     inkscape:cy="178.16674"
     inkscape:document-units="px"
     inkscape:current-layer="layer1"
     showgrid="true"
     units="px"
     inkscape:snap-nodes="true"
     inkscape:object-paths="true"
     inkscape:snap-intersection-paths="true"
     inkscape:snap-smooth-nodes="true"
     inkscape:snap-midpoints="true"
     inkscape:pagecheckerboard="true"
     inkscape:window-width="1920"
     inkscape:window-height="1028"
     inkscape:window-x="1912"
     inkscape:window-y="-8"
     inkscape:window-maximized="1">
    <inkscape:grid
       type="xygrid"
       id="grid12462" />
  </sodipodi:namedview>
  <metadata
     id="metadata12457">
    <rdf:RDF>
      <cc:Work
         rdf:about="">
        <dc:format>image/svg+xml</dc:format>
        <dc:type
           rdf:resource="http://purl.org/dc/dcmitype/StillImage" />
        <dc:title></dc:title>
      </cc:Work>
    </rdf:RDF>
  </metadata>
  <g
     inkscape:label="Layer 1"
     inkscape:groupmode="layer"
     id="layer1"
     transform="translate(0,-217.62499)">
    <path
       style="fill:#ffffff;fill-opacity:1;stroke:none;stroke-width:11.11250019;stroke-linejoin:round;stroke-miterlimit:4;stroke-dasharray:none;stroke-dashoffset:0;stroke-opacity:1;paint-order:markers fill stroke"
       d="M 39.6875,217.62499 A 39.6875,39.6875 0 0 0 0,257.31249 39.6875,39.6875 0 0 0 39.6875,296.99999 39.6875,39.6875 0 0 0 79.374999,257.31249 39.6875,39.6875 0 0 0 39.6875,217.62499 Z m 0.661458,12.56771 A 27.119791,27.119791 0 0 1 67.468749,257.31249 27.119791,27.119791 0 0 1 40.348958,284.43228 27.119791,27.119791 0 0 1 13.229167,257.31249 27.119791,27.119791 0 0 1 40.348958,230.1927 Z"
       id="path12472"
       inkscape:connector-curvature="0" />
    <path
       style="fill:#eeff01;fill-opacity:1;stroke:none;stroke-width:11.11250019;stroke-linejoin:round;stroke-miterlimit:4;stroke-dasharray:none;stroke-dashoffset:0;stroke-opacity:1;paint-order:markers fill stroke"
       d="M 119.0625,217.625 A 39.6875,39.6875 0 0 0 79.374995,257.3125 39.6875,39.6875 0 0 0 119.0625,297 39.6875,39.6875 0 0 0 158.75,257.3125 39.6875,39.6875 0 0 0 119.0625,217.625 Z m 0.66146,12.5677 a 27.119792,27.119792 0 0 1 27.11979,27.1198 27.119792,27.119792 0 0 1 -27.11979,27.11979 27.119792,27.119792 0 0 1 -27.119796,-27.11979 27.119792,27.119792 0 0 1 27.119796,-27.1198 z"
       id="path12472-5"
       inkscape:connector-curvature="0" />
  </g>
</svg>
